<svg xmlns="http://www.w3.org/2000/svg" viewBox="0 0 120 120" fill="none">
  <defs>
    <linearGradient id="grad-primary" x1="0%" y1="0%" x2="100%" y2="100%">
      <stop offset="0%" stop-color="#f2b05e" />
      <stop offset="100%" stop-color="#d9823b" />
    </linearGradient>
    <linearGradient id="grad-secondary" x1="100%" y1="100%" x2="0%" y2="0%">
      <stop offset="0%" stop-color="#5bc0a8" />
      <stop offset="100%" stop-color="#1e8f7a" />
    </linearGradient>
  </defs>

  <!-- Large Spark -->
  <path d="M 60 15 C 60 50, 70 60, 105 60 C 70 60, 60 70, 60 105 C 60 70, 50 60, 15 60 C 50 60, 60 50, 60 15 Z" fill="url(#grad-primary)" />
  
  <!-- Smaller Internal Spark -->
  <path d="M 60 40 C 60 55, 65 60, 80 60 C 65 60, 60 65, 60 80 C 60 65, 55 60, 40 60 C 55 60, 60 55, 60 40 Z" fill="url(#grad-secondary)" />

  <circle cx="60" cy="60" r="4" fill="#ffffff" />
</svg>
